<svg xmlns="http://www.w3.org/2000/svg" viewBox="0 0 182.76 147.27"><defs><style>.cls-1{fill:#004c26;}</style></defs><title>234_1</title><g id="Capa_2" data-name="Capa 2"><g id="Capa_1-2" data-name="Capa 1"><path class="cls-1" d="M0,48.8a2.62,2.62,0,0,1,2-2.38,38.26,38.26,0,0,1,7.58-.73h.72c6.27.11,11.51,1.82,15.14,4.93.25.21.5.44.74.67A65.5,65.5,0,0,1,31.5,35.62C26.32,32.81,22.63,29.14,20.82,25c-1.91-4.38-2-9.89-.29-15.92a39,39,0,0,1,3.12-7.72A2.61,2.61,0,0,1,25.91,0a2.48,2.48,0,0,1,.61.07,39.13,39.13,0,0,1,7.78,3c5.58,2.85,9.54,6.68,11.45,11.06S47.75,24,46,30a39,39,0,0,1-3.1,7.7l-.1.2A54.05,54.05,0,0,0,80.4,117.06a5.58,5.58,0,0,1,4.46,6.5v0a41,41,0,0,1-1.42,7c-1.78,6-4.81,10.61-8.77,13.29a22.12,22.12,0,0,1-12.43,3.35c-1,0-2.09-.05-3.17-.15a38.49,38.49,0,0,1-8.17-1.65,2.64,2.64,0,0,1-1.75-2.59,38,38,0,0,1,1.51-8.19c1.78-6,4.82-10.61,8.78-13.29h0A65.16,65.16,0,0,1,46.2,112a42.43,42.43,0,0,1-3.78,2.21,26.28,26.28,0,0,1-11.93,3.2,17.61,17.61,0,0,1-3.19-.28h0l-.55-.11c-4.67-1-9.2-4.16-13.08-9.08a38.47,38.47,0,0,1-4.44-7,2.6,2.6,0,0,1,.67-3.05,38.28,38.28,0,0,1,7-4.57,26.45,26.45,0,0,1,11.94-3.2c.59,0,1.18,0,1.75.08,0-.07-.07-.14-.1-.22a65.52,65.52,0,0,1-4.27-13.76c-.77,0-1.59.08-2.47.08H23c-6.27-.11-11.5-1.82-15.14-4.93s-6.13-8-7.23-14.18A38.79,38.79,0,0,1,0,48.8Z"/><path class="cls-1" d="M182.73,48.8a2.63,2.63,0,0,0-2-2.38,38,38,0,0,0-7.57-.73h-.72c-6.27.11-11.51,1.82-15.14,4.93-.26.21-.5.44-.74.67a66,66,0,0,0-5.26-15.68c5.18-2.81,8.86-6.48,10.68-10.66,1.91-4.38,2-9.89.29-15.92a38,38,0,0,0-3.13-7.72A2.6,2.6,0,0,0,156.85,0a2.48,2.48,0,0,0-.61.07,39.13,39.13,0,0,0-7.78,3c-5.58,2.85-9.54,6.68-11.45,11.06S135,24,136.72,30a38.68,38.68,0,0,0,3.11,7.7,1.86,1.86,0,0,0,.1.2,54.05,54.05,0,0,1-37.58,79.12,5.57,5.57,0,0,0-4.45,6.5v0a39.82,39.82,0,0,0,1.41,7c1.79,6,4.82,10.61,8.78,13.29a22.12,22.12,0,0,0,12.43,3.35c1,0,2.09-.05,3.17-.15a38.32,38.32,0,0,0,8.16-1.65,2.63,2.63,0,0,0,1.76-2.59,38,38,0,0,0-1.51-8.19c-1.78-6-4.82-10.61-8.78-13.29h0A65.16,65.16,0,0,0,136.56,112a42.43,42.43,0,0,0,3.78,2.21,26.28,26.28,0,0,0,11.93,3.2,17.61,17.61,0,0,0,3.19-.28h0L156,117c4.67-1,9.19-4.16,13.08-9.08a39.13,39.13,0,0,0,4.44-7,2.61,2.61,0,0,0-.67-3.05,38.14,38.14,0,0,0-7-4.57A26.38,26.38,0,0,0,154,90.05c-.59,0-1.18,0-1.75.08l.1-.22a66.72,66.72,0,0,0,4.27-13.76c.76,0,1.59.08,2.47.08h.73c6.27-.11,11.5-1.82,15.14-4.93s6.13-8,7.23-14.18a39.57,39.57,0,0,0,.58-8.31Z"/><path class="cls-1" d="M71.73,76.08v4.64h-24l13.35-16a29.34,29.34,0,0,0,3.64-5.27,9.22,9.22,0,0,0,1.15-4.12,5.56,5.56,0,0,0-1.58-4.19A5.89,5.89,0,0,0,60,49.61a5.57,5.57,0,0,0-4,1.53,6,6,0,0,0-1.78,4h-5.6a9.76,9.76,0,0,1,3.23-7.67c2.15-1.92,5-2.87,8.66-2.87,3.45,0,6.18.89,8.17,2.66a9.22,9.22,0,0,1,3,7.25A14.25,14.25,0,0,1,70,61.12q-1.72,3.33-7.29,9.68l-4.54,5.28Z"/><path class="cls-1" d="M79.23,71.17h5.56v.29a4.91,4.91,0,0,0,1.69,3.93A6.68,6.68,0,0,0,91,76.86a7.16,7.16,0,0,0,5-1.62,6.05,6.05,0,0,0,1.77-4.68A6.13,6.13,0,0,0,96,65.74a7.94,7.94,0,0,0-5.43-1.63l-.54,0c-.24,0-.43,0-.56,0V59.48c.11,0,.29,0,.52,0s.41,0,.53,0a7.34,7.34,0,0,0,4.78-1.33,4.76,4.76,0,0,0,1.62-3.91,4.75,4.75,0,0,0-1.46-3.65,5.44,5.44,0,0,0-3.89-1.36,6.1,6.1,0,0,0-4.09,1.26,4.57,4.57,0,0,0-1.55,3.53H80.69a9.42,9.42,0,0,1,3.1-7c1.91-1.63,4.55-2.44,7.94-2.44a11.22,11.22,0,0,1,7.77,2.56,8.84,8.84,0,0,1,2.87,6.93,8.64,8.64,0,0,1-1.62,5.41,6.72,6.72,0,0,1-4.51,2.55,7.92,7.92,0,0,1,5.17,3,10.24,10.24,0,0,1,1.77,6.28,9.35,9.35,0,0,1-3.34,7.55q-3.33,2.8-9,2.8a11.9,11.9,0,0,1-8.3-2.85A10.19,10.19,0,0,1,79.23,71.17Z"/><path class="cls-1" d="M124.93,80.72V73.46H107.79l20.8-28.85h1.64v24.8h4.34v4h-4.34v7.26Zm.14-24.15L116,69.41h9v-9.3c0-.49,0-1,0-1.64S125,57.24,125.07,56.57Z"/></g></g></svg>