<svg xmlns="http://www.w3.org/2000/svg" viewBox="0 0 281.16 166.31"><defs><style>.cls-1{fill:#004c26;}.cls-2{fill:#fff;}</style></defs><title>banderas</title><g id="Capa_2" data-name="Capa 2"><g id="Capa_1-2" data-name="Capa 1"><path class="cls-1" d="M280.09,63.45a4.75,4.75,0,0,0-4.38-1.9,38,38,0,0,1-19.07-3A35.7,35.7,0,0,1,237.12,39a41.19,41.19,0,0,0-22.54-22.61,42.79,42.79,0,0,0-26-2.82l.92-2.11a8.19,8.19,0,0,0-15-6.53L109.34,154.85a8.19,8.19,0,1,0,15,6.53l34.69-79.79a4.85,4.85,0,0,0,2.67.09A37,37,0,0,1,185.18,84a35.74,35.74,0,0,1,19.57,19.53,41.14,41.14,0,0,0,22.49,22.58,42.66,42.66,0,0,0,24.67,3.13,5.46,5.46,0,0,0,4-3.32l24.77-57A5.47,5.47,0,0,0,280.09,63.45ZM119.35,159.2a2.73,2.73,0,1,1-5-2.18L179.52,7.11a2.73,2.73,0,1,1,5,2.17Zm131.51-35.35a37.82,37.82,0,0,1-21.44-2.74,35.7,35.7,0,0,1-19.52-19.5A41.14,41.14,0,0,0,187.36,79a42.7,42.7,0,0,0-25.93-2.88L185.81,20A36.18,36.18,0,0,1,212.4,21.4,35.76,35.76,0,0,1,232,40.92a41.13,41.13,0,0,0,22.49,22.59,43.64,43.64,0,0,0,21.06,3.61l-24.66,56.73Z"/><path class="cls-1" d="M.48,69l24.77,57a5.48,5.48,0,0,0,4,3.32,42.63,42.63,0,0,0,24.66-3.13,41.16,41.16,0,0,0,22.5-22.58A35.69,35.69,0,0,1,96,84a37,37,0,0,1,23.46-2.33,4.85,4.85,0,0,0,2.67-.09l34.69,79.79a8.19,8.19,0,1,0,15-6.53L106.65,4.93a8.19,8.19,0,1,0-15,6.53l.91,2.11a42.79,42.79,0,0,0-26,2.82A41.19,41.19,0,0,0,44,39,35.68,35.68,0,0,1,24.53,58.5a38.08,38.08,0,0,1-19.08,3,4.76,4.76,0,0,0-4.38,1.9A5.47,5.47,0,0,0,.48,69ZM96.64,9.28a2.73,2.73,0,1,1,5-2.17L166.82,157a2.73,2.73,0,1,1-5,2.18ZM30.31,123.85,5.64,67.12A43.62,43.62,0,0,0,26.7,63.51,41.15,41.15,0,0,0,49.2,40.92,35.71,35.71,0,0,1,68.76,21.4,36.18,36.18,0,0,1,95.35,20l24.39,56.1A42.74,42.74,0,0,0,93.8,79a41.14,41.14,0,0,0-22.54,22.6,35.71,35.71,0,0,1-19.51,19.5,37.83,37.83,0,0,1-21.44,2.74Z"/><path class="cls-2" d="M119.35,159.2a2.73,2.73,0,1,1-5-2.18L179.52,7.11a2.73,2.73,0,1,1,5,2.17Z"/></g></g></svg>