<svg xmlns="http://www.w3.org/2000/svg" viewBox="0 0 445.69 96.37"><defs><style>.cls-1{fill:#fff;}</style></defs><title>Recurso 2</title><g id="Capa_2" data-name="Capa 2"><g id="Capa_1-2" data-name="Capa 1"><path class="cls-1" d="M61.14,69.72A52.4,52.4,0,0,1,33.67,78a20.27,20.27,0,0,1-.23-4.87c.15-3.08,1.83-2.21,3.05-4.64A20.73,20.73,0,0,0,38,64.91c0-.08-.81-14.83-1-21.09-.12-3.37-.75-9-1.49-14.48-.44-3.24-1.43-5.81-1.88-8.89C33,16,32.18,11,32.18,11c-.55,1.42-1.33,6.71-2.12,12.69-.38,2.87-.76,5.9-1.11,8.73-.75,6-2.62,22-2.91,22.89-.42,1.32-.47-.35-.47-.35S26.68,38.13,27,30.76c.17-3.61.44-7.57.89-11.38a76.26,76.26,0,0,1,1.34-8.07s1.92-5.82,2.54-5.94,2.84,3.67,3.59,7c1.7,7.6,2.7,8.57,4,16.55,1.24,7.59,2.36,13.94,2.51,15a92.69,92.69,0,0,1-.67,20.18,3.71,3.71,0,0,1-1.13,2.59c-2,2-3.34,4.33-3.34,5.87s-.25,1.51.11,2.41c0,0,2.58,3.85,17.38-5a9.21,9.21,0,0,0,4.63-7.78V8.13s-14.68-5-26-5S7.39,8.12,7.39,8.12V62c0,3.32.49,9.54,5.22,11.66,0,0-12.61-4.32-12.61-11.73V3.54S19.25,0,32.87,0,66.08,3.54,66.08,3.54V62c0,5-4.94,7.72-4.94,7.72Z"/><path class="cls-1" d="M244.08,24.49a11.12,11.12,0,0,1-5.42,1.13,6.87,6.87,0,0,1-5.34-2.08,8.29,8.29,0,0,1-1.91-5.81,8.86,8.86,0,0,1,1.91-6,6.15,6.15,0,0,1,4.91-2.14,8.45,8.45,0,0,1,2.34.29V3.63h3.51V24.49ZM240.57,23h0V11.81a5.73,5.73,0,0,0-1.56-.2q-4.09,0-4.1,5.92t3.84,5.83a3.59,3.59,0,0,0,1.82-.34Z"/><path class="cls-1" d="M260.15,17.45l-9.53,1.38c.29,2.88,1.7,4.33,4.24,4.33a8.66,8.66,0,0,0,3.93-.85l.84,2.21a10.62,10.62,0,0,1-5.14,1.1,6.81,6.81,0,0,1-5.29-2.11,8.54,8.54,0,0,1-1.93-6,8.94,8.94,0,0,1,1.77-5.9,6,6,0,0,1,4.87-2.12,5.68,5.68,0,0,1,4.74,2c1.08,1.36,1.58,3.33,1.5,5.93Zm-3.29-1.38h0c0-3-1-4.42-3.07-4.42A2.81,2.81,0,0,0,251.3,13a7.08,7.08,0,0,0-.89,4.1l6.45-1Z"/><polygon class="cls-1" points="83.04 66.85 77.51 66.85 77.51 32.7 83.04 32.7 83.04 66.85 83.04 66.85"/><path class="cls-1" d="M108.52,54.67q0,5.65-2.49,9a9.89,9.89,0,0,1-15.3,0q-2.49-3.35-2.49-9t2.49-9.05a9.89,9.89,0,0,1,15.3,0q2.49,3.35,2.49,9.05Zm-5.48,0h0q0-9.15-4.66-9.14t-4.66,9.14q0,8.91,4.66,8.91T103,54.63Z"/><path class="cls-1" d="M127.45,59.83a6.83,6.83,0,0,1-2.4,5.25,9.06,9.06,0,0,1-6.29,2.17A11.78,11.78,0,0,1,112,65.49L113.46,62A7.1,7.1,0,0,0,118,63.37a3.81,3.81,0,0,0,2.72-1,3.2,3.2,0,0,0,1-2.46A3.46,3.46,0,0,0,121,57.5a7.2,7.2,0,0,0-2.76-1.6q-5.56-2.13-5.57-6.84a6.65,6.65,0,0,1,2.15-5,7.79,7.79,0,0,1,5.59-2,11.35,11.35,0,0,1,6.33,1.72l-1.36,3.22a6,6,0,0,0-3.88-1.37,3.41,3.41,0,0,0-2.55.93,3.11,3.11,0,0,0-.93,2.29c0,1.6,1.2,2.88,3.62,3.84q5.84,2.35,5.83,7.2Z"/><path class="cls-1" d="M168.19,66.85h-6.44l-2.61-8.7H148.22l-2.7,8.7h-5.61L151.12,33H157l11.16,33.85ZM158.25,54.5h0l-3.49-11.92a22.77,22.77,0,0,1-.88-4.09h-.1c-.16.89-.48,2.25-.94,4.09L149.2,54.5Z"/><path class="cls-1" d="M190.91,66.85h-5.53V49.56c0-2.72-1.46-4.07-4.38-4.07a10.08,10.08,0,0,0-3.8.68V66.85h-5.53V43.77A22.46,22.46,0,0,1,181.22,42q5.11,0,7.56,2.27a6.6,6.6,0,0,1,2.13,5.2V66.85Z"/><path class="cls-1" d="M215.8,65.53a17.58,17.58,0,0,1-8.51,1.76c-3.59,0-6.39-1.08-8.38-3.26s-3-5.2-3-9.09,1-7,3-9.37a9.69,9.69,0,0,1,7.7-3.35,13.17,13.17,0,0,1,3.67.46V32.81h5.52V65.53Zm-5.52-2.31h0V45.67a8.81,8.81,0,0,0-2.45-.32q-6.42,0-6.42,9.28t6,9.14a5.52,5.52,0,0,0,2.85-.55Z"/><path class="cls-1" d="M240.94,54.49,226,56.67q.67,6.78,6.65,6.79a13.32,13.32,0,0,0,6.16-1.36l1.31,3.48a16.7,16.7,0,0,1-8.06,1.71,10.68,10.68,0,0,1-8.28-3.3q-3-3.3-3-9.41,0-5.92,2.78-9.25A9.42,9.42,0,0,1,231.16,42c3.26,0,5.73,1.07,7.42,3.19s2.48,5.23,2.36,9.3Zm-5.17-2.17h0q0-6.91-4.8-6.92a4.4,4.4,0,0,0-3.89,2,11.05,11.05,0,0,0-1.41,6.43l10.1-1.54Z"/><path class="cls-1" d="M259.91,59.83a6.83,6.83,0,0,1-2.4,5.25,9,9,0,0,1-6.29,2.17,11.78,11.78,0,0,1-6.75-1.76L245.92,62a7.13,7.13,0,0,0,4.58,1.41,3.79,3.79,0,0,0,2.71-1,3.21,3.21,0,0,0,1-2.46,3.42,3.42,0,0,0-.82-2.43,7.2,7.2,0,0,0-2.76-1.6q-5.56-2.13-5.56-6.84a6.65,6.65,0,0,1,2.14-5,7.8,7.8,0,0,1,5.59-2,11.35,11.35,0,0,1,6.33,1.72l-1.35,3.22a6,6,0,0,0-3.89-1.37,3.45,3.45,0,0,0-2.55.93,3.11,3.11,0,0,0-.93,2.29q0,2.4,3.62,3.84,5.84,2.35,5.83,7.2Z"/><path class="cls-1" d="M106.65,25.38h-3.51v-11c0-1.73-.94-2.6-2.81-2.6a6.51,6.51,0,0,0-2.42.44V25.38H94.39V10.66a14.36,14.36,0,0,1,6.09-1.13A6.93,6.93,0,0,1,105.3,11a4.22,4.22,0,0,1,1.35,3.32V25.38Z"/><path class="cls-1" d="M114.24,5.39a1.58,1.58,0,0,1-.57,1.23,2.1,2.1,0,0,1-2.74,0,1.58,1.58,0,0,1-.57-1.23,1.63,1.63,0,0,1,.57-1.24,1.92,1.92,0,0,1,1.37-.52,2,2,0,0,1,1.37.5,1.62,1.62,0,0,1,.57,1.26Zm-.19,20h-3.52V9.82h3.52V25.38Z"/><path class="cls-1" d="M130.08,9.82l-5,15.56h-3.35L116.65,9.82h3.76l2.74,10a10.28,10.28,0,0,1,.38,2.14h0c.1-.56.23-1.27.41-2.14l2.8-10Z"/><path class="cls-1" d="M144.83,17.49l-9.53,1.39q.44,4.32,4.25,4.32a8.56,8.56,0,0,0,3.93-.85l.83,2.22a10.62,10.62,0,0,1-5.14,1.1,6.83,6.83,0,0,1-5.28-2.11,8.54,8.54,0,0,1-1.94-6,8.88,8.88,0,0,1,1.78-5.9,6,6,0,0,1,4.86-2.13,5.69,5.69,0,0,1,4.74,2c1.08,1.35,1.58,3.33,1.5,5.92Zm-3.29-1.38h0q0-4.41-3.06-4.41A2.81,2.81,0,0,0,136,13a7,7,0,0,0-.9,4.1l6.45-1Z"/><path class="cls-1" d="M155.53,9.55l-.69,2.58a4.91,4.91,0,0,0-1.62-.26,3.37,3.37,0,0,0-1.68.37V25.38H148V10.65c1.72-.83,4.22-1.19,7.51-1.1Z"/><path class="cls-1" d="M166.76,20.91a4.35,4.35,0,0,1-1.53,3.35,5.75,5.75,0,0,1-4,1.39,7.52,7.52,0,0,1-4.31-1.13l.93-2.25a4.52,4.52,0,0,0,2.92.9,2.41,2.41,0,0,0,1.73-.63,2.05,2.05,0,0,0,.67-1.57,2.21,2.21,0,0,0-.52-1.54,4.63,4.63,0,0,0-1.76-1c-2.37-.9-3.55-2.36-3.55-4.36a4.24,4.24,0,0,1,1.37-3.21,5,5,0,0,1,3.56-1.3,7.2,7.2,0,0,1,4,1.1l-.87,2a3.79,3.79,0,0,0-2.48-.87,2.23,2.23,0,0,0-1.63.59,2,2,0,0,0-.59,1.46q0,1.53,2.31,2.46c2.48,1,3.73,2.53,3.73,4.59Z"/><path class="cls-1" d="M173.64,5.39a1.57,1.57,0,0,1-.56,1.23,2.1,2.1,0,0,1-2.74,0,1.58,1.58,0,0,1-.57-1.23,1.63,1.63,0,0,1,.57-1.24,1.92,1.92,0,0,1,1.37-.52,2,2,0,0,1,1.37.5,1.61,1.61,0,0,1,.56,1.26Zm-.18,20h-3.52V9.82h3.52V25.38Z"/><path class="cls-1" d="M189.45,24.54A11.19,11.19,0,0,1,184,25.67a6.9,6.9,0,0,1-5.34-2.08,8.29,8.29,0,0,1-1.91-5.81,8.89,8.89,0,0,1,1.91-6,6.18,6.18,0,0,1,4.91-2.13,8,8,0,0,1,2.34.29V3.68h3.52V24.54Zm-3.52-1.48h0V11.86a5.73,5.73,0,0,0-1.56-.2q-4.1,0-4.1,5.92t3.84,5.83a3.55,3.55,0,0,0,1.82-.35Z"/><path class="cls-1" d="M204.44,24.54a12,12,0,0,1-5.63,1.13q-6.34,0-6.35-4.73A4.56,4.56,0,0,1,195,16.7a16.65,16.65,0,0,1,6.12-1.5v-.84c0-1.71-1-2.57-3.09-2.57a9.07,9.07,0,0,0-3.9.94l-.8-2a12,12,0,0,1,5.34-1.19c3.82,0,5.74,1.79,5.74,5.37v9.64Zm-3.29-1.26h0V16.86a10.48,10.48,0,0,0-3.92,1.07,3.15,3.15,0,0,0-1.44,2.89q0,2.89,3.25,2.89a4.67,4.67,0,0,0,2.11-.43Z"/><path class="cls-1" d="M220.29,24.54a11.12,11.12,0,0,1-5.42,1.13,6.92,6.92,0,0,1-5.35-2.08,8.28,8.28,0,0,1-1.9-5.81,8.84,8.84,0,0,1,1.91-6,6.18,6.18,0,0,1,4.91-2.13,8.13,8.13,0,0,1,2.34.29V3.68h3.51V24.54Zm-3.51-1.48h0V11.86a5.78,5.78,0,0,0-1.56-.2c-2.74,0-4.1,2-4.1,5.92s1.28,5.83,3.84,5.83a3.6,3.6,0,0,0,1.82-.35Z"/><path class="cls-1" d="M77.47,3.71h3.74V20.45c0,1.84,1,2.76,3,2.76a6.84,6.84,0,0,0,2.57-.46v-19h3.75V24.38A15.4,15.4,0,0,1,84,25.57c-2.31,0-4-.51-5.12-1.53a4.5,4.5,0,0,1-1.44-3.53V3.71Z"/><path class="cls-1" d="M185.24,96.37a4.67,4.67,0,0,1-4.07-2.17,10.73,10.73,0,0,1,0-10.89,4.64,4.64,0,0,1,4.08-2.18,5.73,5.73,0,0,1,1.65.2,4.16,4.16,0,0,1,1.23.61l-.47,1.17a3.92,3.92,0,0,0-.92-.41,3.51,3.51,0,0,0-1.15-.17,3,3,0,0,0-2.9,1.78,9.54,9.54,0,0,0-.93,4.44,9.16,9.16,0,0,0,.95,4.38,3.05,3.05,0,0,0,2.86,1.75,3.6,3.6,0,0,0,1.12-.14,4.19,4.19,0,0,0,.95-.44l.51,1.25a3.77,3.77,0,0,1-1.24.6A5.7,5.7,0,0,1,185.24,96.37Z"/><path class="cls-1" d="M194.43,96.37a3.84,3.84,0,0,1-3.4-1.66,7.51,7.51,0,0,1-1.14-4.35A7.65,7.65,0,0,1,191,86a4.35,4.35,0,0,1,6.81,0A7.64,7.64,0,0,1,199,90.36a7.52,7.52,0,0,1-1.13,4.36A3.83,3.83,0,0,1,194.43,96.37Zm0-10.83a2.08,2.08,0,0,0-2.08,1.36,9,9,0,0,0-.57,3.46,8.5,8.5,0,0,0,.57,3.4,2.3,2.3,0,0,0,4.15,0,8.68,8.68,0,0,0,.56-3.39,9.15,9.15,0,0,0-.56-3.47A2.06,2.06,0,0,0,194.43,85.54Z"/><path class="cls-1" d="M201.69,96.15V79.25h1.89v16.9Z"/><path class="cls-1" d="M210.88,96.37a3.84,3.84,0,0,1-3.4-1.66,9,9,0,0,1,0-8.73,4.35,4.35,0,0,1,6.81,0,7.64,7.64,0,0,1,1.12,4.39,7.52,7.52,0,0,1-1.13,4.36A3.83,3.83,0,0,1,210.88,96.37Zm0-10.83a2.08,2.08,0,0,0-2.08,1.36,9,9,0,0,0-.57,3.46,8.5,8.5,0,0,0,.57,3.4,2.3,2.3,0,0,0,4.15,0,8.68,8.68,0,0,0,.56-3.39,9.15,9.15,0,0,0-.56-3.47A2.06,2.06,0,0,0,210.88,85.54Z"/><path class="cls-1" d="M231.05,96.15V87.78a2.42,2.42,0,0,0-.51-1.6,2.15,2.15,0,0,0-1.72-.62,3.14,3.14,0,0,0-2.39,1v9.55h-1.9V87.71a2,2,0,0,0-.65-1.57,2.77,2.77,0,0,0-1.89-.58,6.55,6.55,0,0,0-1.14.08,4.32,4.32,0,0,0-.95.31v10.2H218v-11a8.62,8.62,0,0,1,1.77-.61,10.24,10.24,0,0,1,2.25-.21,5.58,5.58,0,0,1,2.15.36,3.66,3.66,0,0,1,1.41,1,4.47,4.47,0,0,1,1.51-1,5.36,5.36,0,0,1,2.08-.38,3.63,3.63,0,0,1,2.84,1,3.42,3.42,0,0,1,.93,2.41v8.39Z"/><path class="cls-1" d="M239.47,96.37a8.29,8.29,0,0,1-2-.23,4.56,4.56,0,0,1-1.45-.59V79.25h1.89v5.69a5.66,5.66,0,0,1,1-.4,5.94,5.94,0,0,1,1.32-.12A3.93,3.93,0,0,1,243.51,86a6.5,6.5,0,0,1,1.24,4.18,7,7,0,0,1-1.37,4.53A4.74,4.74,0,0,1,239.47,96.37Zm.32-10.83a4.3,4.3,0,0,0-1,.11,3.51,3.51,0,0,0-.85.34v8.87a2.17,2.17,0,0,0,.73.22,6.8,6.8,0,0,0,.9.06,2.75,2.75,0,0,0,2.52-1.3,6.82,6.82,0,0,0,.8-3.62,6.62,6.62,0,0,0-.76-3.37A2.49,2.49,0,0,0,239.79,85.54Z"/><path class="cls-1" d="M248.43,82.31a1.14,1.14,0,0,1-.8-.3,1,1,0,0,1-.32-.73,1,1,0,0,1,.32-.76,1.14,1.14,0,0,1,.8-.3,1.08,1.08,0,0,1,.77.3,1,1,0,0,1,.33.76,1,1,0,0,1-.33.73A1.08,1.08,0,0,1,248.43,82.31Zm-1,13.84V84.55h1.9v11.6Z"/><path class="cls-1" d="M256.37,96.37a5.21,5.21,0,0,1-3.31-.89A3.09,3.09,0,0,1,252,93a3.26,3.26,0,0,1,1.7-3.08,12.64,12.64,0,0,1,4.78-1.27v-.71a2.09,2.09,0,0,0-.68-1.79,3.07,3.07,0,0,0-1.88-.52,5,5,0,0,0-1.47.21,7.52,7.52,0,0,0-1.33.53l-.45-1.12a7,7,0,0,1,1.53-.6,7.31,7.31,0,0,1,2-.27,4.56,4.56,0,0,1,2.92.9,3.44,3.44,0,0,1,1.13,2.87v7.45a6.36,6.36,0,0,1-1.66.6A9.57,9.57,0,0,1,256.37,96.37Zm2.07-6.8a9,9,0,0,0-3.54,1,2.52,2.52,0,0,0-1.13,2.33,2.19,2.19,0,0,0,.71,1.79,3.12,3.12,0,0,0,2,.58,4,4,0,0,0,1.92-.39Z"/><path class="cls-1" d="M327.71,26.9v6.23H333v1.58h-5.25v8.4h-2.38V25.33h8.22V26.9Z"/><path class="cls-1" d="M341,43.37a6.18,6.18,0,0,1-4-1.07,3.7,3.7,0,0,1-1.32-3,3.92,3.92,0,0,1,2-3.7A15.49,15.49,0,0,1,343.48,34v-.85a2.54,2.54,0,0,0-.81-2.15,3.71,3.71,0,0,0-2.27-.62,6.22,6.22,0,0,0-1.75.24,10.19,10.19,0,0,0-1.61.64L336.5,30a9,9,0,0,1,1.83-.71,9.11,9.11,0,0,1,2.44-.32,5.51,5.51,0,0,1,3.5,1.07,4.16,4.16,0,0,1,1.36,3.45v9a7.76,7.76,0,0,1-2,.72A11.57,11.57,0,0,1,341,43.37Zm2.48-8.17a10.91,10.91,0,0,0-4.25,1.2,3,3,0,0,0-1.36,2.81,2.61,2.61,0,0,0,.85,2.15,3.83,3.83,0,0,0,2.46.69,4.84,4.84,0,0,0,2.3-.46Z"/><path class="cls-1" d="M354,43.37a4.54,4.54,0,0,1-3.81-1.95,8.58,8.58,0,0,1-1.46-5.29,8.54,8.54,0,0,1,1.46-5.3,4.63,4.63,0,0,1,3.86-1.91,5.67,5.67,0,0,1,1.92.27,3.64,3.64,0,0,1,1.16.66l-.54,1.32a4.82,4.82,0,0,0-.88-.47,3.37,3.37,0,0,0-1.19-.2A2.86,2.86,0,0,0,351.87,32a8.29,8.29,0,0,0-.84,4.09,8.17,8.17,0,0,0,.89,4.08,2.8,2.8,0,0,0,2.55,1.55,3.23,3.23,0,0,0,1.16-.17,4.43,4.43,0,0,0,1-.5l.57,1.42a3.11,3.11,0,0,1-1.23.67A5.94,5.94,0,0,1,354,43.37Z"/><path class="cls-1" d="M364.86,43.4a5.12,5.12,0,0,1-3.73-1.19,4.51,4.51,0,0,1-1.2-3.36V29.18h2.27V39a3,3,0,0,0,.7,2.08,2.62,2.62,0,0,0,2.09.79,4.86,4.86,0,0,0,2.51-.57V29.18h2.28V42.29a8.77,8.77,0,0,1-2.08.8A11.54,11.54,0,0,1,364.86,43.4Z"/><path class="cls-1" d="M373.6,43.11V22.82h2.28V43.11Z"/><path class="cls-1" d="M384,43.22a3.21,3.21,0,0,1-2.61-1,3.74,3.74,0,0,1-.85-2.49V30.6H378.9V29.18h1.61V26l2.27-.7v3.91h2.43V30.6h-2.43v9a2.3,2.3,0,0,0,.43,1.46,1.57,1.57,0,0,0,1.33.55c.14,0,.36,0,.67,0V43l-.57.12A3.26,3.26,0,0,1,384,43.22Z"/><path class="cls-1" d="M392.63,43.37a6.2,6.2,0,0,1-4-1.07,3.7,3.7,0,0,1-1.32-3,3.91,3.91,0,0,1,2.05-3.7A15.43,15.43,0,0,1,395.12,34v-.85A2.55,2.55,0,0,0,394.3,31a3.68,3.68,0,0,0-2.26-.62,6.29,6.29,0,0,0-1.76.24,10.08,10.08,0,0,0-1.6.64L388.13,30a9.34,9.34,0,0,1,4.27-1A5.49,5.49,0,0,1,395.9,30a4.13,4.13,0,0,1,1.36,3.45v9a7.63,7.63,0,0,1-2,.72A11.57,11.57,0,0,1,392.63,43.37Zm2.49-8.17a11,11,0,0,0-4.26,1.2,3.07,3.07,0,0,0-1.36,2.81,2.62,2.62,0,0,0,.86,2.15,3.82,3.82,0,0,0,2.45.69,4.86,4.86,0,0,0,2.31-.46Z"/><path class="cls-1" d="M406.52,43.37A5.62,5.62,0,0,1,402,41.48a7.67,7.67,0,0,1-1.6-5.13A8.06,8.06,0,0,1,402,31a5.43,5.43,0,0,1,4.38-2,8.51,8.51,0,0,1,2.19.31V22.82h2.28V42.39a6.22,6.22,0,0,1-1.85.71A11.07,11.07,0,0,1,406.52,43.37Zm2.09-12.77a6.57,6.57,0,0,0-.83-.18,5.76,5.76,0,0,0-.89-.08A3.53,3.53,0,0,0,403.66,32a8,8,0,0,0-1,4.2,7.88,7.88,0,0,0,.94,4.17,3.29,3.29,0,0,0,3,1.53,3.79,3.79,0,0,0,2-.39Z"/><path class="cls-1" d="M427.28,43.37a5.58,5.58,0,0,1-4.52-1.89,7.67,7.67,0,0,1-1.61-5.13A8.06,8.06,0,0,1,422.8,31a5.43,5.43,0,0,1,4.38-2,8.51,8.51,0,0,1,2.19.31V22.82h2.28V42.39a6.11,6.11,0,0,1-1.85.71A11.07,11.07,0,0,1,427.28,43.37Zm2.09-12.77a6.2,6.2,0,0,0-.83-.18,5.64,5.64,0,0,0-.88-.08A3.5,3.5,0,0,0,424.43,32a7.92,7.92,0,0,0-1,4.2,7.78,7.78,0,0,0,.95,4.17,3.27,3.27,0,0,0,3,1.53,3.75,3.75,0,0,0,2-.39Z"/><path class="cls-1" d="M436.92,37a4.9,4.9,0,0,0,1.14,3.52,4.1,4.1,0,0,0,3.1,1.19,8,8,0,0,0,2-.21,5.72,5.72,0,0,0,1.48-.59l.6,1.5a7,7,0,0,1-1.77.68,10.09,10.09,0,0,1-2.45.27,5.83,5.83,0,0,1-4.52-1.82,7.79,7.79,0,0,1-1.68-5.44,8.14,8.14,0,0,1,1.54-5.33,5,5,0,0,1,4.07-1.86,4.75,4.75,0,0,1,3.93,1.69,8.09,8.09,0,0,1,1.37,5.14Zm3.39-6.62a2.94,2.94,0,0,0-2.53,1.33,7.19,7.19,0,0,0-.93,4.08l6.67-1a5.39,5.39,0,0,0-.82-3.34A2.84,2.84,0,0,0,440.31,30.39Z"/><path class="cls-1" d="M334.93,83.1a8.07,8.07,0,0,1-7-3.75,16.27,16.27,0,0,1-2.57-9.4,16.35,16.35,0,0,1,2.55-9.37,8,8,0,0,1,7-3.77,10.15,10.15,0,0,1,2.84.35,7.08,7.08,0,0,1,2.13,1.06l-.81,2a8,8,0,0,0-1.58-.7,6.34,6.34,0,0,0-2-.3,5.28,5.28,0,0,0-5,3.08,16.47,16.47,0,0,0-1.6,7.65,15.73,15.73,0,0,0,1.63,7.56,5.29,5.29,0,0,0,4.94,3,6.63,6.63,0,0,0,1.93-.24,7.66,7.66,0,0,0,1.64-.76l.89,2.15a6.62,6.62,0,0,1-2.15,1A10.12,10.12,0,0,1,334.93,83.1Z"/><path class="cls-1" d="M345.59,58.85a1.93,1.93,0,0,1-1.38-.52,1.68,1.68,0,0,1-.56-1.26,1.7,1.7,0,0,1,.56-1.3,1.93,1.93,0,0,1,1.38-.52,1.87,1.87,0,0,1,1.33.52,1.7,1.7,0,0,1,.56,1.3,1.68,1.68,0,0,1-.56,1.26A1.87,1.87,0,0,1,345.59,58.85ZM344,82.73v-20h3.27v20Z"/><path class="cls-1" d="M355,74a7.05,7.05,0,0,0,1.64,5,5.86,5.86,0,0,0,4.45,1.71,11.46,11.46,0,0,0,2.81-.3,8.06,8.06,0,0,0,2.13-.86l.86,2.16a9.92,9.92,0,0,1-2.55,1,14.38,14.38,0,0,1-3.51.39,8.4,8.4,0,0,1-6.5-2.62c-1.61-1.74-2.41-4.35-2.41-7.81s.74-5.87,2.21-7.65A7.19,7.19,0,0,1,360,62.34a6.83,6.83,0,0,1,5.64,2.43c1.32,1.63,2,4.08,2,7.38Zm4.87-9.51a4.22,4.22,0,0,0-3.64,1.91q-1.33,1.92-1.34,5.85l9.58-1.46a7.84,7.84,0,0,0-1.17-4.8A4.08,4.08,0,0,0,359.85,64.46Z"/><path class="cls-1" d="M383.32,82.73V68.36a4.21,4.21,0,0,0-.93-2.79,4.08,4.08,0,0,0-3.27-1.11,8.87,8.87,0,0,0-3.79.7V82.73h-3.26v-19a13.43,13.43,0,0,1,3.19-1.06,21.47,21.47,0,0,1,4.12-.35q3.83,0,5.52,1.73a5.83,5.83,0,0,1,1.69,4.21V82.73Z"/><path class="cls-1" d="M398.66,83.1a6.52,6.52,0,0,1-5.48-2.8,12.4,12.4,0,0,1-2.1-7.6q0-4.86,2.1-7.61a6.65,6.65,0,0,1,5.55-2.75,8,8,0,0,1,2.75.39,5.39,5.39,0,0,1,1.67,1l-.78,1.89a6.72,6.72,0,0,0-1.26-.67,4.79,4.79,0,0,0-1.71-.29,4.08,4.08,0,0,0-3.84,2.11,11.89,11.89,0,0,0-1.21,5.87,11.77,11.77,0,0,0,1.28,5.87,4,4,0,0,0,3.66,2.23,5,5,0,0,0,1.67-.24,6.11,6.11,0,0,0,1.37-.73l.82,2a4.79,4.79,0,0,1-1.76,1A8.79,8.79,0,0,1,398.66,83.1Z"/><path class="cls-1" d="M409,58.85a1.92,1.92,0,0,1-1.37-.52,1.68,1.68,0,0,1-.56-1.26,1.7,1.7,0,0,1,.56-1.3,1.92,1.92,0,0,1,1.37-.52,1.88,1.88,0,0,1,1.34.52,1.7,1.7,0,0,1,.56,1.3,1.68,1.68,0,0,1-.56,1.26A1.88,1.88,0,0,1,409,58.85Zm-1.63,23.88v-20h3.27v20Z"/><path class="cls-1" d="M422.69,83.1q-3.82,0-5.72-1.54a5.29,5.29,0,0,1-1.9-4.36A5.61,5.61,0,0,1,418,71.89a21.85,21.85,0,0,1,8.24-2.19V68.47a3.63,3.63,0,0,0-1.17-3.08,5.21,5.21,0,0,0-3.25-.89,8.62,8.62,0,0,0-2.52.35,13.86,13.86,0,0,0-2.31.91l-.78-1.93a13.56,13.56,0,0,1,6.13-1.49,8,8,0,0,1,5,1.54c1.3,1,1.94,2.68,1.94,5V81.69a11,11,0,0,1-2.85,1A17.14,17.14,0,0,1,422.69,83.1Zm3.56-11.73a15.76,15.76,0,0,0-6.11,1.72,4.37,4.37,0,0,0-1.95,4,3.76,3.76,0,0,0,1.23,3.09,5.5,5.5,0,0,0,3.53,1,6.85,6.85,0,0,0,3.3-.67Z"/><path class="cls-1" d="M438.51,83a11.12,11.12,0,0,1-2.95-.37,6.58,6.58,0,0,1-2.18-1l.89-2.15a4.57,4.57,0,0,0,1.62.85,7.09,7.09,0,0,0,2.28.34,3.75,3.75,0,0,0,2.68-1,3.61,3.61,0,0,0,.26-4.78,8.41,8.41,0,0,0-3-1.67A6.64,6.64,0,0,1,434.91,71a5.41,5.41,0,0,1-1-3.2,5.19,5.19,0,0,1,1.66-3.92,6,6,0,0,1,4.32-1.58,8.36,8.36,0,0,1,2.6.38,7.9,7.9,0,0,1,2.08,1l-.85,2a6.49,6.49,0,0,0-1.45-.74,5.23,5.23,0,0,0-1.89-.34,3.24,3.24,0,0,0-2.47.91,3.07,3.07,0,0,0-.88,2.24,2.83,2.83,0,0,0,.86,2.15,9.59,9.59,0,0,0,3,1.65,7,7,0,0,1,3.25,2.26,5.66,5.66,0,0,1-.82,7.51A6.83,6.83,0,0,1,438.51,83Z"/><rect class="cls-1" x="292" y="3.63" width="0.83" height="92.52"/></g></g></svg>