<svg xmlns="http://www.w3.org/2000/svg" viewBox="0 0 193.29 188.42"><defs><style>.cls-1{fill:#004c26;}</style></defs><title>manos</title><g id="Capa_2" data-name="Capa 2"><g id="Capa_1-2" data-name="Capa 1"><path class="cls-1" d="M119.33,89h-1.16V84.85a6.54,6.54,0,0,1,2.42-5.1,12.21,12.21,0,0,0,4.51-9.49V31.37A8.07,8.07,0,0,0,117,23.31a8.31,8.31,0,0,0-2.41.36V12.62a8.07,8.07,0,0,0-8.06-8.06,7.93,7.93,0,0,0-3,.57,8,8,0,0,0-15,0,7.93,7.93,0,0,0-3-.57,8.07,8.07,0,0,0-7.93,6.6,8.19,8.19,0,0,0-2.54-.41,8.07,8.07,0,0,0-8.07,8.06V49a2.83,2.83,0,0,0,5.66,0V18.81a2.41,2.41,0,1,1,4.81,0V41.29a2.83,2.83,0,1,0,5.66,0V12.62a2.41,2.41,0,1,1,4.82,0V41.29a2.83,2.83,0,1,0,5.65,0V8.06a2.41,2.41,0,0,1,4.82,0V41.29a2.83,2.83,0,1,0,5.65,0V12.62a2.41,2.41,0,0,1,4.82,0V50.34a4,4,0,0,1-2.51,3.72l-6.81,2.77a8.57,8.57,0,0,0-5.37,8v2.53a2.83,2.83,0,0,0,5.66,0V64.8a2.92,2.92,0,0,1,1.84-2.73l6.81-2.77a9.63,9.63,0,0,0,6-9v-19a2.41,2.41,0,0,1,4.82,0V70.26A6.57,6.57,0,0,1,117,75.37a12.18,12.18,0,0,0-4.5,9.48V89H79.3V84.7A12.23,12.23,0,0,0,75,75.41a6.57,6.57,0,0,1-2.29-5V61.6a2.83,2.83,0,1,0-5.66,0v8.82a12.27,12.27,0,0,0,4.28,9.29,6.58,6.58,0,0,1,2.28,5v4.36a6.87,6.87,0,0,0-6.56,6.86v89.67a2.83,2.83,0,0,0,5.66,0V117.11h47.81v68.48a2.83,2.83,0,1,0,5.66,0V95.92A6.89,6.89,0,0,0,119.33,89ZM72.74,111.45V95.92A1.22,1.22,0,0,1,74,94.7h45.37a1.22,1.22,0,0,1,1.22,1.22v15.53Z"/><path class="cls-1" d="M186.41,136.5h-1.15v-4.19a6.54,6.54,0,0,1,2.42-5.1,12.22,12.22,0,0,0,4.5-9.49V78.83a8.08,8.08,0,0,0-8.07-8.07,7.93,7.93,0,0,0-2.4.37v-11A8.07,8.07,0,0,0,173.64,52a7.93,7.93,0,0,0-3,.57,8,8,0,0,0-15,0,7.93,7.93,0,0,0-3-.57,8.07,8.07,0,0,0-7.93,6.6,7.91,7.91,0,0,0-2.54-.42,8.08,8.08,0,0,0-8.07,8.07v51.6a12.23,12.23,0,0,0,4.24,9.26l0,0a6.58,6.58,0,0,1,2.29,5v4.36a6.89,6.89,0,0,0-6.57,6.87v42.21a2.83,2.83,0,1,0,5.66,0v-21h47.81v21a2.83,2.83,0,1,0,5.66,0V143.38A6.89,6.89,0,0,0,186.41,136.5Zm-46.59,22.41V143.38a1.23,1.23,0,0,1,1.22-1.23h22.69a2.83,2.83,0,1,0,0-5.65H146.38v-4.35a12.22,12.22,0,0,0-4.23-9.25l0,0a6.56,6.56,0,0,1-2.29-5V66.27a2.41,2.41,0,0,1,4.82,0V88.75a2.83,2.83,0,1,0,5.65,0V60.08a2.41,2.41,0,0,1,4.82,0V88.75a2.83,2.83,0,0,0,5.66,0V55.52a2.41,2.41,0,1,1,4.81,0V88.75a2.83,2.83,0,0,0,5.66,0V60.08a2.41,2.41,0,1,1,4.81,0V97.79a4,4,0,0,1-2.51,3.73l-6.81,2.76a8.57,8.57,0,0,0-5.36,8v2.54a2.83,2.83,0,0,0,5.65,0v-2.54a2.94,2.94,0,0,1,1.84-2.73l6.81-2.76a9.64,9.64,0,0,0,6-9v-19a2.41,2.41,0,1,1,4.81,0v38.89a6.54,6.54,0,0,1-2.42,5.1,12.2,12.2,0,0,0-4.5,9.49v4.19h-3.9a2.83,2.83,0,0,0,0,5.65h10.71a1.23,1.23,0,0,1,1.23,1.23v15.53Z"/><path class="cls-1" d="M52.25,136.5H51.09v-4.19a6.54,6.54,0,0,1,2.42-5.1,12.22,12.22,0,0,0,4.5-9.49V78.83a8.06,8.06,0,0,0-10.47-7.7v-11A8.07,8.07,0,0,0,39.48,52a7.93,7.93,0,0,0-3,.57,8.05,8.05,0,0,0-15,0,7.93,7.93,0,0,0-3-.57,8.07,8.07,0,0,0-7.92,6.6,8,8,0,0,0-2.55-.42A8.08,8.08,0,0,0,0,66.27v51.6a12.2,12.2,0,0,0,4.24,9.26l0,0a6.55,6.55,0,0,1,2.29,5v4.36A6.89,6.89,0,0,0,0,143.38v42.21a2.83,2.83,0,0,0,5.66,0v-21H9.92a2.83,2.83,0,1,0,0-5.66H5.66V143.38a1.22,1.22,0,0,1,1.22-1.23H52.25a1.23,1.23,0,0,1,1.22,1.23v15.53H21a2.83,2.83,0,0,0,0,5.66H53.47v21a2.83,2.83,0,1,0,5.65,0V143.38A6.88,6.88,0,0,0,52.25,136.5Zm-40,0v-4.35A12.19,12.19,0,0,0,8,122.9l0,0a6.58,6.58,0,0,1-2.28-5V66.27a2.41,2.41,0,1,1,4.81,0V88.75a2.83,2.83,0,0,0,5.66,0V60.08a2.41,2.41,0,1,1,4.81,0V88.75a2.83,2.83,0,0,0,5.66,0V55.52a2.41,2.41,0,1,1,4.81,0V88.75a2.83,2.83,0,1,0,5.66,0V60.08a2.41,2.41,0,0,1,4.82,0V97.79a4,4,0,0,1-2.51,3.73l-6.81,2.76a8.58,8.58,0,0,0-5.37,8v2.54a2.83,2.83,0,0,0,5.66,0v-2.54a3,3,0,0,1,1.83-2.73l6.82-2.76a9.65,9.65,0,0,0,6-9v-19a2.41,2.41,0,0,1,4.82,0v38.89a6.57,6.57,0,0,1-2.42,5.1,12.21,12.21,0,0,0-4.51,9.49v4.19Z"/></g></g></svg>