<svg xmlns="http://www.w3.org/2000/svg" viewBox="0 0 149.26 135.09"><defs><style>.cls-1{fill:#004c26;}</style></defs><title>mano</title><g id="Capa_2" data-name="Capa 2"><g id="Capa_1-2" data-name="Capa 1"><path class="cls-1" d="M23.66,100.44a2.92,2.92,0,1,0,2.92,2.92A2.91,2.91,0,0,0,23.66,100.44Z"/><path class="cls-1" d="M148.29,82.93a11.44,11.44,0,0,0-15.07-5.83l0,0L114.13,85.9a2.92,2.92,0,0,0,2.44,5.3l19-8.78a5.6,5.6,0,0,1,4.5,10.25l-39,17.2a22.61,22.61,0,0,1-19.24-.43l-14.26-7.09a28.41,28.41,0,0,0-24.19-.55l-.28.13L32.49,77.77l14.8-6.53a29.47,29.47,0,0,1,22.16-.71l28.7,10.54a5.17,5.17,0,0,1-3.44,9.75l-22.19-7.5a2.91,2.91,0,1,0-1.87,5.52l22.19,7.5a10.72,10.72,0,0,0,3.51.58,11,11,0,0,0,3.81-21.33L71.46,65.06a35.29,35.29,0,0,0-26.52.84L30,72.48a7.37,7.37,0,0,0-9.16-2.72L1.75,78.15A2.9,2.9,0,0,0,0,80.82v51.36a2.92,2.92,0,0,0,1.39,2.48,2.86,2.86,0,0,0,1.53.43,2.93,2.93,0,0,0,1.31-.31L41.39,116a7.41,7.41,0,0,0,4-8.72l.35-.15a22.59,22.59,0,0,1,19.23.43l14.27,7.09a28.39,28.39,0,0,0,24.18.55l39-17.21A11.44,11.44,0,0,0,148.29,82.93ZM39.78,109.85a1.59,1.59,0,0,1-.83.86l-.13.06-33,16.67V114.68l8.62-4.24a2.91,2.91,0,1,0-2.57-5.23l-6.05,3V82.72l17.4-7.62a1.55,1.55,0,0,1,2.05.79L39,107h0l.75,1.7A1.54,1.54,0,0,1,39.78,109.85Z"/><path class="cls-1" d="M108.29,44.71h-4.87a1.59,1.59,0,0,1-1.59-1.58,3.33,3.33,0,1,0-6.66,0,8.26,8.26,0,0,0,7.59,8.22v2a3.33,3.33,0,1,0,6.66,0V51.3a8.74,8.74,0,0,0,7.6-8.65V40.09a8.74,8.74,0,0,0-8.73-8.72h-4.4a2.06,2.06,0,0,1-2.06-2.06V26.75a2.07,2.07,0,0,1,2.06-2.06h4.88a1.58,1.58,0,0,1,1.58,1.58,3.34,3.34,0,1,0,6.67,0,8.25,8.25,0,0,0-7.6-8.21V16a3.33,3.33,0,1,0-6.66,0V18.1a8.73,8.73,0,0,0-7.59,8.65v2.56A8.73,8.73,0,0,0,103.89,38h4.4a2.06,2.06,0,0,1,2.06,2.06v2.56A2.06,2.06,0,0,1,108.29,44.71Z"/><path class="cls-1" d="M105.59,71.55A35.78,35.78,0,1,0,69.81,35.77,35.82,35.82,0,0,0,105.59,71.55Zm0-66A30.27,30.27,0,1,1,75.32,35.77,30.31,30.31,0,0,1,105.59,5.5Z"/></g></g></svg>