<svg xmlns="http://www.w3.org/2000/svg" viewBox="0 0 167.99 179.89"><defs><style>.cls-1{fill:#004c26;}</style></defs><title>persona</title><g id="Capa_2" data-name="Capa 2"><g id="Capa_1-2" data-name="Capa 1"><path class="cls-1" d="M129.41,98.8a18.67,18.67,0,0,1,11.1,17v8.92a2.64,2.64,0,0,0,5.27,0v-8.92A24,24,0,0,0,131.52,94L102.94,81.73c0-.08,0-.15,0-.22V70.14a28.49,28.49,0,0,0,9.6-21.34v-22A28.58,28.58,0,0,0,94.41.18a2.63,2.63,0,0,0-2.93.71l-4,4.48a12.28,12.28,0,0,1-9.1,4H70.59A15.17,15.17,0,0,0,55.43,24.56V38.81h0v10A28.48,28.48,0,0,0,65,70.14V81.51c0,.11,0,.22,0,.32L36.86,94.09a23.88,23.88,0,0,0-14.65,22v8.63a2.64,2.64,0,0,0,5.27,0v-8.63a18.62,18.62,0,0,1,11.45-17.2l14-6.09a33.64,33.64,0,0,0,47.51,16.46c.7-.4,1.4-.83,2.07-1.27a2.63,2.63,0,1,0-2.9-4.4c-.57.38-1.16.74-1.76,1.07a28.35,28.35,0,0,1-40.09-14l8.16-3.54a19,19,0,0,0,36.19-.11l8.17,3.5a28.17,28.17,0,0,1-3.16,5.77,2.63,2.63,0,0,0,.63,3.67,2.6,2.6,0,0,0,1.52.49,2.63,2.63,0,0,0,2.15-1.11,33.53,33.53,0,0,0,3.7-6.74ZM60.7,48.8V41.2A12.6,12.6,0,0,0,64.13,40a12.91,12.91,0,0,0,4.16-3.44,2.64,2.64,0,0,0-4.15-3.26,7.58,7.58,0,0,1-2.44,2,9.41,9.41,0,0,1-1,.43V24.56a9.9,9.9,0,0,1,9.89-9.88H78.4a17.56,17.56,0,0,0,13-5.8l2.72-3.07a23.16,23.16,0,0,1,13.14,21v5.38a29.93,29.93,0,0,1-31.13-6.53,2.63,2.63,0,1,0-3.66,3.79,35.23,35.23,0,0,0,34.78,8.31V48.8a23.29,23.29,0,0,1-46.58,0ZM84,95.19a13.68,13.68,0,0,1-13.58-12,13.54,13.54,0,0,1-.11-1.68V73.86a28.5,28.5,0,0,0,27.37,0v7.65a12.28,12.28,0,0,1-.1,1.6A13.66,13.66,0,0,1,84,95.19Z"/><path class="cls-1" d="M105.82,147.78,93,145.91l-5.75-11.65a3.56,3.56,0,0,0-6.38,0l-5.75,11.65-12.86,1.87a3.56,3.56,0,0,0-2,6.07l9.3,9.07-2.2,12.8a3.56,3.56,0,0,0,5.17,3.75l11.5-6,11.5,6a3.5,3.5,0,0,0,1.66.42,3.57,3.57,0,0,0,3.5-4.17l-2.19-12.8,9.3-9.07a3.56,3.56,0,0,0-2-6.07ZM82.49,136.59h0Zm11.67,23.18a3.58,3.58,0,0,0-1,3.15L94.9,173.2l-9.23-4.85a3.53,3.53,0,0,0-3.31,0l-9.23,4.85,1.77-10.28a3.59,3.59,0,0,0-1-3.15l-7.46-7.27L76.72,151a3.55,3.55,0,0,0,2.68-1.95L84,139.7l4.61,9.35A3.57,3.57,0,0,0,91.31,151l10.32,1.5Z"/><path class="cls-1" d="M46.65,147.78l-12.86-1.87L28,134.26a3.56,3.56,0,0,0-6.38,0l-5.75,11.65L3.05,147.78a3.56,3.56,0,0,0-2,6.07l9.3,9.07-2.2,12.8a3.56,3.56,0,0,0,5.17,3.75l11.5-6,11.5,6a3.5,3.5,0,0,0,1.66.42,3.57,3.57,0,0,0,3.5-4.17l-2.19-12.8,9.3-9.07a3.56,3.56,0,0,0-2-6.07ZM23.32,136.59h0ZM35,159.77a3.56,3.56,0,0,0-1,3.15l1.76,10.28-9.22-4.85a3.55,3.55,0,0,0-3.32,0L14,173.2l1.77-10.28a3.56,3.56,0,0,0-1-3.15L7.24,152.5,17.55,151a3.55,3.55,0,0,0,2.68-1.95l4.62-9.35,4.61,9.35A3.57,3.57,0,0,0,32.14,151l10.32,1.5Z"/><path class="cls-1" d="M167.82,150.2a3.54,3.54,0,0,0-2.88-2.42l-12.85-1.87-5.75-11.65a3.57,3.57,0,0,0-6.39,0l-5.75,11.65-12.86,1.87a3.56,3.56,0,0,0-2,6.07l9.31,9.07-2.2,12.8a3.56,3.56,0,0,0,5.16,3.75l11.5-6,11.5,6a3.56,3.56,0,0,0,1.66.42,3.58,3.58,0,0,0,3.51-4.17l-2.2-12.8,9.3-9.07a3.54,3.54,0,0,0,.91-3.65Zm-26.21-13.61h0Zm11.68,23.18a3.55,3.55,0,0,0-1,3.15L154,173.2l-9.23-4.85a3.53,3.53,0,0,0-3.31,0l-9.23,4.85L134,162.92a3.55,3.55,0,0,0-1-3.15l-7.47-7.27,10.32-1.5a3.57,3.57,0,0,0,2.68-1.95l4.61-9.35,4.62,9.35a3.57,3.57,0,0,0,2.68,1.95l10.31,1.5Z"/></g></g></svg>