<svg xmlns="http://www.w3.org/2000/svg" viewBox="0 0 183.82 183.82"><defs><style>.cls-1{fill:#004c26;}</style></defs><title>virtual</title><g id="Capa_2" data-name="Capa 2"><g id="Capa_1-2" data-name="Capa 1"><g id="Online_Test-Examination-Test-Computer-Pencil" data-name="Online Test-Examination-Test-Computer-Pencil"><path class="cls-1" d="M157.67,50.41v66.7H145.54V71.63h-6.06v45.48H24.26V32.22H39.42a9.12,9.12,0,0,0,9.09-9.1V8h81.87a9.15,9.15,0,0,1,7.88,4.55l5.25-3a15.24,15.24,0,0,0-13.13-7.59H45.48a3.19,3.19,0,0,0-2.15.88L19.07,27a3.15,3.15,0,0,0-.88,2.15v87.93H6.06V41.31a9.11,9.11,0,0,1,6.83-8.82l-1.52-5.85A15.15,15.15,0,0,0,0,41.31v91a15.16,15.16,0,0,0,15.16,15.16H57.22l-2.28,18.2H51.55a9.1,9.1,0,1,0,0,18.19h60.64a9.1,9.1,0,0,0,0-18.19h-3.4l-2.27-18.2h42.05a15.16,15.16,0,0,0,15.16-15.16V50.41ZM42.45,12.23V23.12a3,3,0,0,1-3,3H28.53Zm69.74,159.46a3,3,0,0,1,0,6.07H51.55a3,3,0,1,1,0-6.07ZM61,165.63l2.27-18.2h37.11l2.28,18.2Zm96.63-33.36a9.13,9.13,0,0,1-9.1,9.1H15.16a9.13,9.13,0,0,1-9.1-9.1v-9.09H157.67Z"/><path class="cls-1" d="M139.48,129.24h6.06v6.07h-6.06Z"/><path class="cls-1" d="M179.39,4.43a15.18,15.18,0,0,0-21.44,0L108.64,53.74A2.86,2.86,0,0,0,108,54.8L97.23,82.67a3,3,0,0,0,3.92,3.92L129,75.88a2.75,2.75,0,0,0,1-.69l49.32-49.32A15.18,15.18,0,0,0,179.39,4.43ZM122.5,71.88l-6.2,2.39-6.74-6.74,2.38-6.2Zm1.15-7.42,40.73-40.73L168.67,28,127.93,68.75Zm-4.29-4.28-4.29-4.29L155.8,15.15l4.29,4.29ZM107.18,73.72l2.93,2.93-4.76,1.82ZM175.1,21.59,173,23.73,160.09,10.86l2.15-2.14A9.1,9.1,0,1,1,175.1,21.59Z"/><path class="cls-1" d="M70.63,36.14,66,40.81a15.2,15.2,0,1,0,4.28,4.28l4.67-4.67Zm-3.92,17.3a9.19,9.19,0,1,1-5.2-8.19l-9.08,9.08,4.29,4.28,9.08-9.07a9.11,9.11,0,0,1,.91,3.9Z"/><path class="cls-1" d="M84.9,44.34h21.22v6.07H84.9Z"/><path class="cls-1" d="M84.9,56.47H97v6.07H84.9Z"/><path class="cls-1" d="M70.63,72.52,66,77.19a15.22,15.22,0,1,0,4.28,4.29l4.67-4.67ZM66.71,89.83a9.1,9.1,0,1,1-9.1-9.1,9,9,0,0,1,3.9.91l-9.08,9.07L56.72,95l9.08-9.07a9,9,0,0,1,.91,3.9Z"/><path class="cls-1" d="M84.9,80.73H91v6.06H84.9Z"/><path class="cls-1" d="M84.9,92.86h24.25v6.06H84.9Z"/></g></g></g></svg>